<svg width="46" height="37" viewBox="0 0 46 37" fill="none" xmlns="http://www.w3.org/2000/svg">
<path fill-rule="evenodd" clip-rule="evenodd" d="M2.97067 0.317524C1.80445 0.798282 0.355418 2.77962 0.0815865 4.26773C-0.240103 6.01401 0.407231 8.43834 1.71054 10.3687C2.93253 12.1788 5.69459 14.8441 6.95472 15.429C7.60458 15.7308 8.48544 17.1734 10.1723 20.6986C11.7408 23.9759 12.8329 25.7977 13.5346 26.3071C15.3395 27.6166 35.4566 37 36.4598 37C37.0039 37 37.725 36.6432 38.1276 36.1749C39.1168 35.0242 46 19.8768 46 18.8511C46 18.3898 45.7164 17.6688 45.3703 17.2489C44.4106 16.0861 23.4231 6.20324 21.8913 6.19297C21.1986 6.1882 19.1339 6.54978 17.3035 6.99607C14.6044 7.65394 13.975 7.93484 13.975 8.48014C13.975 9.56781 14.866 9.62612 18.2934 8.76325C20.0716 8.31549 21.9125 8.04779 22.3846 8.16844C23.6754 8.49848 43.2286 17.8922 43.7755 18.4448C44.1674 18.8408 43.6453 20.2545 40.7681 26.5869C38.853 30.8015 37.0697 34.4822 36.8049 34.7667C36.3943 35.2079 34.7664 34.5416 25.7048 30.2235C19.8644 27.4402 14.7717 24.8149 14.3881 24.3892C13.1399 23.0048 9.2965 14.723 9.30874 13.4443C9.32097 12.1524 10.0007 10.9635 10.7272 10.9635C11.0568 10.9635 11.1137 11.4014 10.9388 12.5906C10.7319 13.9966 10.7995 14.2723 11.4375 14.6204C12.8973 15.4165 14.0805 14.0762 13.2942 12.5169C13.1175 12.1667 12.7811 10.8179 12.5465 9.51977C11.8294 5.55123 9.56386 1.81444 7.06627 0.481077C5.99829 -0.0891591 4.13724 -0.163601 2.97067 0.317524ZM6.4434 2.35901C7.69057 3.01615 9.44798 5.3565 10.0194 7.12075C10.3997 8.29532 10.3494 8.42441 8.95826 9.84211C8.15512 10.6606 7.49806 11.6504 7.49806 12.042C7.49806 13.3798 6.7838 13.2041 5.05625 11.4421C3.2463 9.59531 1.74077 6.90292 1.74077 5.51235C1.74077 4.43936 2.65474 2.66374 3.44996 2.19178C4.34306 1.66152 5.21242 1.71029 6.4434 2.35901ZM20.674 13.6222C20.3951 14.2775 19.5765 16.0971 18.8547 17.6659C18.1332 19.2343 17.6403 20.6781 17.759 20.8746C18.2178 21.6308 18.9 21.1669 19.6532 19.5875C20.3681 18.0876 20.5135 17.9732 21.3134 18.2831C22.5412 18.7587 22.9575 17.6505 21.8661 16.8115C21.1806 16.2845 21.1411 16.1052 21.5376 15.3296C21.7859 14.8444 22.0327 14.3937 22.0867 14.3285C22.1403 14.2632 22.679 14.4704 23.2835 14.789C24.3234 15.3373 24.4037 15.3285 24.7721 14.6266C25.1208 13.9621 24.988 13.8092 23.4965 13.1575C21.3307 12.2114 21.2702 12.2213 20.674 13.6222ZM24.7253 16.7601C24.1133 18.11 23.2248 20.0865 22.7509 21.1522L21.8895 23.0903L23.5393 23.8109C25.5195 24.6759 25.7131 24.6899 25.9786 23.9847C26.1129 23.6279 25.8135 23.2417 25.1176 22.875C23.9096 22.2384 23.8995 22.212 24.4587 21.1155C25.0244 20.007 24.9844 20.026 25.8034 20.4731C26.4101 20.8038 26.6069 20.7444 26.9275 20.1342C27.256 19.5082 27.1783 19.3308 26.4194 18.9783C25.5573 18.5783 25.544 18.5211 26.0704 17.4836C26.472 16.6915 26.7789 16.4744 27.2233 16.6673C28.2787 17.1254 29.2419 17.0333 29.3456 16.4642C29.41 16.111 28.8004 15.6262 27.6418 15.1099L25.8383 14.3054L24.7253 16.7601ZM28.6583 20.2266C27.7296 22.292 26.8617 24.2718 26.7296 24.6264C26.5407 25.1343 26.8422 25.4295 28.1531 26.0207C29.0674 26.4329 29.976 26.6694 30.1717 26.5462C30.8461 26.1211 30.5244 25.3529 29.4891 24.9161C28.5234 24.5084 28.4784 24.4027 28.8483 23.4046C29.2653 22.2791 29.6385 22.1178 30.5179 22.6847C30.8673 22.9099 31.1411 22.8769 31.3218 22.5872C31.7611 21.8827 31.6488 21.2314 31.0882 21.2314C30.2908 21.2314 30.1153 20.6495 30.5913 19.5842C30.8997 18.8944 31.2117 18.6754 31.6755 18.8232C32.0335 18.9376 32.628 19.1269 32.9964 19.2442C33.4196 19.3784 33.747 19.2435 33.8845 18.8775C34.0442 18.454 33.6258 18.052 32.3271 17.3813C31.3502 16.8767 30.5053 16.4656 30.4492 16.4678C30.393 16.4697 29.5874 18.161 28.6583 20.2266ZM34.7146 19.9501C33.7675 20.9149 33.6617 22.0037 34.3224 23.984C34.6732 25.0364 34.8539 26.1798 34.724 26.5253C34.3872 27.4197 33.2062 27.0783 33.3048 26.1153C33.3991 25.1937 32.1238 24.6851 31.8101 25.519C31.2458 27.017 32.3944 28.5656 34.0698 28.5656C36.0978 28.5656 36.802 26.5465 35.8121 23.5696C35.5519 22.7877 35.4019 21.8596 35.4785 21.5065C35.6772 20.5911 37.0042 20.6707 37.0042 21.5981C37.0042 22.087 37.2442 22.3316 37.7239 22.3316C38.2388 22.3316 38.4435 22.087 38.4435 21.4716C38.4435 19.7224 35.9402 18.7007 34.7146 19.9501Z" fill="#B33EF8"/>
</svg>
