<svg width="35" height="37" viewBox="0 0 35 37" fill="none" xmlns="http://www.w3.org/2000/svg">
<path fill-rule="evenodd" clip-rule="evenodd" d="M16.9604 0.261359C16.8317 0.40995 16.6816 0.852023 16.6268 1.24358C16.5407 1.85904 16.4113 2.01447 15.6699 2.3916C14.5257 2.97375 14.0096 3.70875 13.9064 4.90321C13.8052 6.07177 14.096 7.00014 14.7501 7.59691C15.0176 7.8408 16.0321 8.45718 17.0048 8.96643C19.0742 10.0501 19.5433 10.6046 19.0725 11.4116C18.7448 11.9734 17.815 12.312 17.0833 12.1359C16.8217 12.073 16.2434 11.7293 15.7979 11.3726C14.9004 10.6535 14.5444 10.5854 13.9098 11.0117C12.9586 11.6505 13.5864 12.9843 15.2097 13.7732C16.0464 14.1797 16.1386 14.2904 16.2392 15.0094C16.3665 15.9199 16.7638 16.275 17.6552 16.275C18.4093 16.275 18.8836 15.7298 18.8836 14.8636C18.8836 14.3444 19.0065 14.2084 19.9222 13.7126C21.1608 13.0422 21.7779 12.0258 21.7779 10.6561C21.7779 9.08985 20.8623 8.05471 18.5557 7.01309C16.8506 6.24312 16.3752 5.81955 16.3752 5.07012C16.3752 4.29682 16.8215 3.9654 17.8337 3.98687C18.4255 3.99927 18.8768 4.16137 19.4539 4.56847C19.9564 4.92264 20.3961 5.09695 20.636 5.03681C21.0875 4.92357 21.5849 4.29737 21.5849 3.84198C21.5849 3.41434 20.3531 2.24726 19.7482 2.10163C19.3453 2.00467 19.2695 1.8768 19.2695 1.29502C19.2695 0.860165 19.1385 0.48989 18.9166 0.297258C18.4803 -0.0815291 17.2761 -0.103549 16.9604 0.261359ZM4.4837 9.10447C2.80675 10.8341 1.45376 13.0987 0.641623 15.5348C0.212303 16.8227 0.100005 17.5649 0.0216661 19.6319C-0.0834932 22.4062 0.18336 24.0857 1.05956 26.1675L1.52361 27.2702L0.700667 27.957C-0.023099 28.5608 -0.0873523 28.6752 0.167152 28.9048C0.326338 29.0484 1.70113 29.6939 3.22237 30.3393C6.24651 31.6224 6.4387 31.6224 6.25115 30.3384C6.19924 29.9822 6.06398 28.8164 5.95072 27.7478C5.83745 26.6791 5.70374 25.6175 5.65357 25.3884C5.53954 24.8672 5.01413 24.8483 4.35944 25.3422C4.08969 25.5457 3.79138 25.7123 3.69684 25.7123C3.21214 25.7123 2.48857 22.5039 2.48683 20.346C2.48374 16.7524 3.75241 13.5289 6.1811 10.959C7.01466 10.0771 7.1231 9.43755 6.53459 8.87317C5.94937 8.31192 5.16637 8.40038 4.4837 9.10447ZM27.8453 8.74049C27.7139 9.06857 28.8341 14.604 29.0794 14.8392C29.2156 14.9698 29.5247 14.8423 30.0623 14.4341L30.8464 13.8385L31.2497 14.7328C32.0202 16.4424 32.3903 18.2635 32.3903 20.346C32.3903 23.2965 31.6213 25.7876 30.0002 28.0901C29.2307 29.1831 29.1186 29.9359 29.6559 30.4022C30.5589 31.1859 31.5013 30.6134 32.7046 28.5499C35.5146 23.7312 35.7573 18.0965 33.3629 13.2709L32.8366 12.2099L33.5956 11.5363C34.2451 10.9599 34.3157 10.8256 34.0854 10.6044C33.8368 10.3661 28.5561 8.50308 28.1289 8.50308C28.0251 8.50308 27.8976 8.61003 27.8453 8.74049ZM12.411 26.3516L11.9373 26.8057V31.4487V36.0916L12.411 36.5457L12.8845 37H17.7259H22.5672L23.0407 36.5457L23.5144 36.0916V31.4487V26.8057L23.0407 26.3516L22.5672 25.8973H17.7259H12.8845L12.411 26.3516ZM20.8131 31.4487V34.4094H17.4364H14.0598V31.4487V28.4879H17.4364H20.8131V31.4487Z" fill="#B33EF8"/>
</svg>
