<svg width="43" height="37" viewBox="0 0 43 37" fill="none" xmlns="http://www.w3.org/2000/svg">
<path fill-rule="evenodd" clip-rule="evenodd" d="M19.6663 0.0683549C13.1045 0.973985 8.06499 5.61913 6.34062 12.3512C6.20247 12.8906 6.01596 13.7956 5.92607 14.3625L5.76263 15.3933L5.18079 15.4585C3.883 15.6039 2.78663 16.1051 1.86118 16.9763C-0.595186 19.2882 -0.624605 23.6291 1.79946 26.0758C2.69875 26.9834 3.96463 27.546 5.4124 27.6814L6.10835 27.7465L6.20507 28.0967C6.25823 28.2893 6.30198 28.485 6.30227 28.5316C6.30255 28.5782 6.46013 29.0133 6.65231 29.4985C8.31034 33.6841 12.019 36.4811 16.4744 36.906C17.0402 36.96 18.1521 37.0022 18.9452 36.9999C20.8942 36.9943 21.3168 36.8345 21.708 35.9549C22.0364 35.2166 21.7199 34.3748 20.9783 34.0136C20.6019 33.8304 20.3938 33.8134 18.5262 33.8134C16.3283 33.8134 15.5555 33.7124 14.3971 33.2739C11.4931 32.1745 9.34019 29.1808 8.90909 25.6428C8.77383 24.5327 8.76883 17.301 8.90236 15.8768C9.2502 12.1664 10.5031 9.22541 12.7156 6.92517C15.1319 4.41289 18.1435 3.13276 21.6371 3.13276C25.1308 3.13276 28.1423 4.41289 30.5587 6.92517C32.7886 9.24349 34.027 12.18 34.3742 15.9734C34.4278 16.5584 34.4717 19.1519 34.4717 21.7366L34.4718 26.4361L34.6904 26.7623C34.8106 26.9418 35.055 27.1876 35.2334 27.3084C35.5228 27.5046 35.6728 27.5281 36.6251 27.5269C38.6166 27.5242 39.8764 27.0276 41.1658 25.7372C41.7951 25.1072 42.0221 24.7962 42.3326 24.1386C43.2186 22.2613 43.2224 20.5204 42.3443 18.7292C41.7736 17.5652 40.7069 16.495 39.5672 15.9428C39.1177 15.7251 38.4629 15.4925 38.1119 15.426L37.4739 15.305L37.4116 14.7709C37.2983 13.8021 36.9574 12.3163 36.5879 11.1815C34.7177 5.43754 30.4058 1.47196 24.7136 0.260678C23.6225 0.0285171 20.7483 -0.0810364 19.6663 0.0683549ZM21.133 19.8C20.6928 19.9338 20.1746 20.4911 20.0469 20.9679C19.7862 21.9418 20.4465 22.9433 21.4225 23.054C22.2752 23.1506 23.0016 22.6521 23.2253 21.8165C23.5563 20.5802 22.3598 19.427 21.133 19.8ZM27.2859 19.8C26.8457 19.9338 26.3275 20.4911 26.1998 20.9679C25.9391 21.9418 26.5995 22.9433 27.5754 23.054C28.4282 23.1506 29.1545 22.6521 29.3782 21.8165C29.7092 20.5802 28.5128 19.427 27.2859 19.8ZM14.6813 19.9568C13.9639 20.3124 13.5984 21.4259 13.9742 22.1111C14.7308 23.4907 16.5896 23.3373 17.0759 21.8552C17.3011 21.169 16.9172 20.2612 16.2714 19.953C15.8443 19.7491 15.0968 19.751 14.6813 19.9568Z" fill="#B33EF8"/>
</svg>
