<svg width="362" height="723" viewBox="0 0 362 723" fill="none" xmlns="http://www.w3.org/2000/svg">
<circle cx="361.5" cy="361.5" r="205" stroke="white" stroke-opacity="0.5"/>
<path d="M238 190H214L207 205L226 224L245 205L238 190Z" fill="#F8973E"/>
<path fill-rule="evenodd" clip-rule="evenodd" d="M222.11 194.648V196.297L221.472 196.319C221.121 196.33 220.196 196.33 219.417 196.318L218 196.296V197.394V198.491L218.919 198.506L219.839 198.521L220.098 198.65C220.302 198.751 220.386 198.825 220.487 198.991L220.617 199.202L220.628 203.932L220.638 208.662L220.541 208.832C220.36 209.148 220.261 209.176 219.265 209.192C218.784 209.2 218.389 209.223 218.389 209.244C218.389 209.264 218.302 209.789 218.195 210.411C218.088 211.032 218 211.565 218 211.595C218 211.637 218.44 211.648 220.055 211.648H222.11V213.324V215H223.148H224.186V213.346V211.691H224.987H225.787V213.346V215H226.825H227.863V213.327V211.654L228.047 211.632C228.148 211.621 228.543 211.58 228.924 211.543C230.386 211.398 231.471 211.06 232.331 210.481C233.22 209.883 233.773 208.884 233.967 207.529C234.033 207.061 233.995 206.007 233.898 205.633C233.608 204.52 232.757 203.698 231.477 203.293C231.274 203.228 231.108 203.169 231.108 203.161C231.108 203.153 231.21 203.089 231.335 203.018C231.46 202.947 231.688 202.776 231.841 202.639C232.567 201.986 232.899 201.024 232.796 199.867C232.745 199.283 232.659 198.952 232.448 198.521C232.143 197.899 231.7 197.472 230.978 197.108C230.241 196.736 229.401 196.505 228.325 196.379L227.885 196.328L227.874 194.664L227.862 193H226.825H225.787V194.611V196.223L225.408 196.223C225.2 196.223 224.84 196.236 224.608 196.251L224.186 196.279V194.639V193H223.148H222.11V194.648ZM226.741 198.735C227.824 198.897 228.478 199.266 228.783 199.886C229.003 200.333 229.013 200.955 228.809 201.427C228.689 201.705 228.286 202.068 227.885 202.261C227.291 202.546 226.168 202.708 224.759 202.71L224.23 202.711V200.694V198.676L224.478 198.658C224.923 198.624 226.321 198.672 226.741 198.735ZM227.279 204.835C228.619 205.045 229.352 205.45 229.733 206.189C229.869 206.455 229.875 206.486 229.875 206.964C229.875 207.439 229.869 207.474 229.733 207.747C229.533 208.152 229.269 208.393 228.75 208.644C227.966 209.023 227.19 209.152 225.473 209.186L224.23 209.211V206.965V204.718L225.538 204.743C226.399 204.759 226.995 204.791 227.279 204.835Z" fill="white"/>
<g filter="url(#filter0_f_18_1392)">
<circle cx="105" cy="100" r="22" fill="#B33EF8"/>
</g>
<circle cx="361.5" cy="361.5" r="361" stroke="white" stroke-opacity="0.5"/>
<path d="M117 88H93L86 103L105 122L124 103L117 88Z" fill="#B33EF8"/>
<g clip-path="url(#clip0_18_1392)">
<path fill-rule="evenodd" clip-rule="evenodd" d="M93.0018 95.0897C92.9227 95.1637 95.4718 99.4484 95.75 99.7092C95.7936 99.7501 95.9623 99.6046 96.1249 99.3862C96.2874 99.1676 96.6571 98.7472 96.9462 98.4519L97.4717 97.9151L99.1499 97.9633L100.828 98.0115L99.1968 100.618C98.2996 102.051 97.564 103.269 97.5621 103.324C97.556 103.502 99.1549 106.074 99.2711 106.073C99.3325 106.073 100.517 104.241 101.902 102.003L104.421 97.9343L109.907 97.9322L115.393 97.93L116.275 96.557C116.761 95.8019 117.113 95.1422 117.058 95.0911C116.93 94.9705 93.1304 94.9692 93.0018 95.0897ZM104.784 100.203C104.346 100.915 103.987 101.538 103.987 101.587C103.987 101.636 105.323 101.676 106.955 101.676C108.587 101.676 109.897 101.732 109.865 101.8C109.833 101.868 109.581 102.305 109.305 102.772L108.803 103.62L107.172 103.666L105.542 103.712L105.125 104.368L104.709 105.023L105.475 106.16C105.897 106.784 106.243 107.343 106.244 107.4C106.245 107.457 105.938 107.998 105.562 108.601L104.877 109.699L104.52 109.149C104.324 108.846 103.674 107.777 103.076 106.773C102.478 105.769 101.934 104.944 101.868 104.94C101.801 104.937 101.387 105.551 100.949 106.306L100.151 107.678L102.421 111.315C103.67 113.315 104.76 114.973 104.843 115C104.926 115.027 106.032 113.346 107.3 111.266L109.606 107.484L109.224 106.86L108.841 106.237H109.612H110.383L112.571 102.667C113.774 100.704 114.759 99.0547 114.759 99.0024C114.759 98.9502 112.694 98.9073 110.17 98.9073H105.581L104.784 100.203Z" fill="white"/>
</g>
<defs>
<filter id="filter0_f_18_1392" x="33" y="28" width="144" height="144" filterUnits="userSpaceOnUse" color-interpolation-filters="sRGB">
<feFlood flood-opacity="0" result="BackgroundImageFix"/>
<feBlend mode="normal" in="SourceGraphic" in2="BackgroundImageFix" result="shape"/>
<feGaussianBlur stdDeviation="25" result="effect1_foregroundBlur_18_1392"/>
</filter>
<clipPath id="clip0_18_1392">
<rect width="24" height="20" fill="white" transform="translate(93 95)"/>
</clipPath>
</defs>
</svg>
