<svg width="36" height="111" viewBox="0 0 36 111" fill="none" xmlns="http://www.w3.org/2000/svg">
<rect width="6" height="75" transform="matrix(1 0 0 -1 15 75)" fill="url(#paint0_linear_29_8)"/>
<rect y="75" width="36" height="36" fill="#B33EF8"/>
<path d="M10.53 103V102.01C10.53 101.11 10.69 100.29 11.01 99.55C11.33 98.81 11.76 98.14 12.3 97.54C12.84 96.92 13.44 96.34 14.1 95.8C14.78 95.24 15.46 94.71 16.14 94.21C16.98 93.59 17.77 92.97 18.51 92.35C19.25 91.71 19.85 91.03 20.31 90.31C20.77 89.57 21 88.75 21 87.85C21 87.43 20.9 87.01 20.7 86.59C20.5 86.17 20.17 85.82 19.71 85.54C19.27 85.26 18.67 85.12 17.91 85.12C17.15 85.12 16.52 85.25 16.02 85.51C15.52 85.75 15.14 86.1 14.88 86.56C14.64 87.02 14.52 87.59 14.52 88.27V89.5H10.86C10.84 89.4 10.82 89.25 10.8 89.05C10.78 88.85 10.77 88.6 10.77 88.3C10.77 86.82 11.1 85.63 11.76 84.73C12.44 83.81 13.33 83.14 14.43 82.72C15.55 82.28 16.76 82.06 18.06 82.06C19.42 82.06 20.53 82.26 21.39 82.66C22.27 83.06 22.95 83.57 23.43 84.19C23.93 84.81 24.27 85.47 24.45 86.17C24.65 86.87 24.75 87.51 24.75 88.09C24.75 89.05 24.58 89.93 24.24 90.73C23.92 91.51 23.47 92.25 22.89 92.95C22.31 93.63 21.62 94.29 20.82 94.93C20.04 95.55 19.2 96.18 18.3 96.82C17.84 97.14 17.39 97.46 16.95 97.78C16.51 98.1 16.12 98.42 15.78 98.74C15.46 99.06 15.21 99.38 15.03 99.7H24.87V103H10.53Z" fill="white"/>
<defs>
<linearGradient id="paint0_linear_29_8" x1="3" y1="0" x2="3" y2="75" gradientUnits="userSpaceOnUse">
<stop stop-color="#B33EF8"/>
<stop offset="1" stop-color="#B33EF8" stop-opacity="0"/>
</linearGradient>
</defs>
</svg>
