<svg width="152" height="526" viewBox="0 0 152 526" fill="none" xmlns="http://www.w3.org/2000/svg">
<g filter="url(#filter0_f_24_3)">
<circle cx="84" cy="267" r="18" fill="#B33EF8"/>
</g>
<path fill-rule="evenodd" clip-rule="evenodd" d="M6 0L5.99992 191L83.9999 222L86.9999 227V241H80.9999L80.9998 227L5.99992 197L6 263V337L80.9999 307L81 293H87V307L84 312L6 343V526H0V263V0H6Z" fill="url(#paint0_linear_24_3)"/>
<path fill-rule="evenodd" clip-rule="evenodd" d="M82.8565 254.059C82.4295 254.167 71.7411 262.688 70.9656 263.539C70.2254 264.35 69.8199 266.376 70.0778 267.975C70.1567 268.463 70.2818 269.836 70.3559 271.026C70.5242 273.728 70.6932 274.176 71.8086 274.873C72.2351 275.14 72.7279 275.412 72.9035 275.477C73.079 275.542 75.38 276.587 78.0168 277.798C81.0248 279.18 82.9743 280 83.2496 280C83.615 280 83.9232 279.778 85.0962 278.668C86.598 277.246 87.9729 275.956 93.0702 271.186C97.1537 267.364 97.0475 267.474 96.9815 267.139C96.8624 266.535 96.7461 266.335 96.5139 266.335C96.3806 266.335 94.1322 268.318 91.5175 270.742C88.9027 273.166 85.981 275.871 85.0247 276.754C84.0685 277.638 83.1724 278.36 83.0336 278.36C82.8948 278.36 82.0138 277.965 81.0758 277.481C80.1379 276.997 77.9866 275.98 76.2951 275.22C74.6036 274.46 73.0709 273.694 72.8893 273.518C72.5808 273.22 72.3311 272.422 72.3172 271.689C72.312 271.423 72.3609 271.388 72.6255 271.468C72.7986 271.521 75.0722 272.543 77.6782 273.739C80.2841 274.936 82.593 275.95 82.8088 275.992C83.1665 276.062 83.4885 275.8 86.4582 273.023C95.4969 264.57 96.6351 263.47 96.6351 263.187C96.6351 262.78 96.3763 262.235 96.1842 262.237C95.9941 262.239 95.4555 262.699 93.5596 264.477C92.1038 265.843 87.2921 270.306 84.7786 272.621C83.7587 273.56 82.8657 274.349 82.7944 274.373C82.723 274.397 81.892 274.017 80.9477 273.529C80.0034 273.04 77.7839 271.986 76.0155 271.186C74.2471 270.386 72.6925 269.636 72.561 269.52C72.4293 269.403 72.2612 269.116 72.1876 268.88C72.0457 268.428 71.8957 266.237 71.9888 265.975C72.0216 265.883 74.0159 266.726 76.9653 268.079C79.9025 269.426 82.0631 270.34 82.3241 270.345C82.6964 270.351 83.1338 270.027 85.2598 268.166C86.634 266.964 89.2994 264.636 91.1831 262.993C93.0668 261.35 94.6959 259.871 94.8029 259.706C95.1801 259.123 94.9213 258.767 93.737 258.24C93.1397 257.973 90.8267 256.939 88.5969 255.942C84.565 254.138 83.6836 253.849 82.8565 254.059Z" fill="white"/>
<defs>
<filter id="filter0_f_24_3" x="16" y="199" width="136" height="136" filterUnits="userSpaceOnUse" color-interpolation-filters="sRGB">
<feFlood flood-opacity="0" result="BackgroundImageFix"/>
<feBlend mode="normal" in="SourceGraphic" in2="BackgroundImageFix" result="shape"/>
<feGaussianBlur stdDeviation="25" result="effect1_foregroundBlur_24_3"/>
</filter>
<linearGradient id="paint0_linear_24_3" x1="43.5" y1="0" x2="43.5" y2="526" gradientUnits="userSpaceOnUse">
<stop stop-color="#B43FF9" stop-opacity="0.25"/>
<stop offset="0.54" stop-color="#B43FF9"/>
<stop offset="1" stop-color="#B43FF9" stop-opacity="0.25"/>
</linearGradient>
</defs>
</svg>
