<svg width="136" height="136" viewBox="0 0 136 136" fill="none" xmlns="http://www.w3.org/2000/svg">
<g filter="url(#filter0_f_24_2)">
<circle cx="68" cy="68" r="18" fill="#B33EF8"/>
</g>
<path fill-rule="evenodd" clip-rule="evenodd" d="M66.7997 55.3029C65.3666 56.1772 65.2993 58.3567 66.6777 59.2604C67.0345 59.4943 67.0718 59.6159 67.0718 60.5458V61.5728H68H68.9282V60.5458C68.9282 59.6159 68.9655 59.4943 69.3223 59.2604C70.7007 58.3567 70.6334 56.1772 69.2003 55.3029C68.5385 54.899 67.4615 54.899 66.7997 55.3029ZM56.1256 57.6248C54.6314 58.5364 54.6314 60.7394 56.1256 61.651C57.1262 62.2615 58.6342 61.9306 59.2691 60.9611C59.4999 60.6085 59.629 60.5667 60.4879 60.5667H61.4486L62.3652 61.8352C62.8693 62.5329 63.3237 63.1647 63.375 63.2393C63.4264 63.3141 63.8195 63.1141 64.2486 62.7949L65.0287 62.2149L64.0125 60.8103C62.3891 58.5664 62.5971 58.7091 60.9522 58.7091C59.5958 58.7091 59.5149 58.6901 59.2691 58.3147C58.6342 57.3452 57.1262 57.0143 56.1256 57.6248ZM77.4835 57.6188C77.2117 57.7847 76.8729 58.0979 76.7309 58.3147C76.4851 58.6901 76.4042 58.7091 75.0478 58.7091C73.3974 58.7091 73.5794 58.5842 71.9828 60.8117L70.975 62.2175L71.7533 62.7963C72.1813 63.1147 72.5736 63.3115 72.625 63.2338C72.6763 63.1561 73.1297 62.524 73.6327 61.8295L74.5469 60.5667H75.5099C76.3711 60.5667 76.5 60.6083 76.7309 60.9611C77.3658 61.9306 78.8738 62.2615 79.8744 61.651C81.3686 60.7394 81.3686 58.5364 79.8744 57.6248C79.2171 57.2237 78.1356 57.2209 77.4835 57.6188ZM66.6077 63.0243C65.2394 63.474 64.0603 64.4715 63.3831 65.7523C63.0236 66.4323 62.9739 66.7049 62.9739 67.9968C62.9739 69.292 63.0229 69.5596 63.3856 70.2413C63.881 71.173 64.8861 72.1668 65.8342 72.6627C66.4227 72.9705 66.7576 73.0267 68 73.0267C69.2424 73.0267 69.5773 72.9705 70.1658 72.6627C71.1139 72.1668 72.119 71.173 72.6144 70.2413C72.9769 69.5597 73.0263 69.2916 73.0264 67.9968C73.0269 66.3009 72.7623 65.6176 71.6578 64.4622C70.665 63.4234 69.7085 62.9996 68.232 62.9438C67.5514 62.9183 66.8204 62.9545 66.6077 63.0243ZM56.1256 65.9837C54.1133 67.2114 54.9736 70.3176 57.3259 70.3176C58.1109 70.3176 58.8715 69.9271 59.2691 69.32C59.5028 68.9629 59.6244 68.9256 60.5537 68.9256H61.5801V67.9968V67.068H60.5537C59.6244 67.068 59.5028 67.0307 59.2691 66.6736C58.6342 65.7041 57.1262 65.3732 56.1256 65.9837ZM77.4835 65.9777C77.2117 66.1436 76.8729 66.4567 76.7309 66.6736C76.4972 67.0307 76.3756 67.068 75.4463 67.068H74.4199V67.9968V68.9256H75.4463C76.3756 68.9256 76.4972 68.9629 76.7309 69.32C77.3658 70.2894 78.8738 70.6204 79.8744 70.0099C81.3686 69.0983 81.3686 66.8953 79.8744 65.9837C79.2171 65.5826 78.1356 65.5798 77.4835 65.9777ZM62.441 74.0364L61.4457 75.4269H60.4864C59.6292 75.4269 59.4999 75.385 59.2691 75.0325C58.6342 74.063 57.1262 73.7321 56.1256 74.3426C54.6314 75.2542 54.6314 77.4572 56.1256 78.3688C57.1262 78.9793 58.6342 78.6483 59.2691 77.6789C59.5149 77.3035 59.5958 77.2844 60.9522 77.2844C62.5975 77.2844 62.3885 77.4281 64.0169 75.1775L65.0372 73.7672L64.3142 73.2426C63.9165 72.9541 63.5563 72.7018 63.5138 72.6819C63.4713 72.6623 62.9884 73.2717 62.441 74.0364ZM71.6897 73.2233L70.9706 73.7777L71.9872 75.1828C73.6109 77.4273 73.4028 77.2844 75.0478 77.2844C76.4042 77.2844 76.4851 77.3035 76.7309 77.6789C77.3658 78.6483 78.8738 78.9793 79.8744 78.3688C81.8867 77.1411 81.0264 74.0348 78.6741 74.0348C77.8891 74.0348 77.1285 74.4254 76.7309 75.0325C76.5 75.3853 76.3709 75.4269 75.5101 75.4269H74.5475L73.5555 74.0381C73.01 73.2742 72.5287 72.6536 72.4862 72.659C72.4437 72.6645 72.0852 72.9183 71.6897 73.2233ZM67.0718 75.4478C67.0718 76.3777 67.0345 76.4993 66.6777 76.7332C65.7088 77.3685 65.378 78.8774 65.9882 79.8786C66.8992 81.3738 69.1008 81.3738 70.0118 79.8786C70.622 78.8774 70.2912 77.3685 69.3223 76.7332C68.9655 76.4993 68.9282 76.3777 68.9282 75.4478V74.4207H68H67.0718V75.4478Z" fill="white"/>
<defs>
<filter id="filter0_f_24_2" x="0" y="0" width="136" height="136" filterUnits="userSpaceOnUse" color-interpolation-filters="sRGB">
<feFlood flood-opacity="0" result="BackgroundImageFix"/>
<feBlend mode="normal" in="SourceGraphic" in2="BackgroundImageFix" result="shape"/>
<feGaussianBlur stdDeviation="25" result="effect1_foregroundBlur_24_2"/>
</filter>
</defs>
</svg>
