<svg width="136" height="136" viewBox="0 0 136 136" fill="none" xmlns="http://www.w3.org/2000/svg">
<g filter="url(#filter0_f_18_1393)">
<circle cx="68" cy="68" r="18" fill="#B33EF8"/>
</g>
<path fill-rule="evenodd" clip-rule="evenodd" d="M65.107 55.1031C64.6824 55.2737 64.5814 55.576 64.3619 57.3325C64.2609 58.1416 64.1387 58.8599 64.0907 58.9288C64.0426 58.9977 63.65 59.2391 63.2183 59.4653C62.7866 59.6916 62.2972 59.961 62.1306 60.0644C61.8605 60.2316 61.6473 60.1814 60.1619 59.6001C59.2457 59.2416 58.3556 58.9677 58.1837 58.9914C57.7565 59.0506 54.8777 63.8221 55.004 64.2616C55.0503 64.4225 55.7294 65.0366 56.5131 65.6265L57.9383 66.6989V68.0035V69.3081L56.5131 70.3805C55.7294 70.9704 55.0503 71.5845 55.004 71.7454C54.8777 72.1849 57.7565 76.9564 58.1837 77.0156C58.3556 77.0393 59.2453 76.7655 60.161 76.4072C61.7843 75.7719 61.8352 75.7616 62.201 75.9901C62.4073 76.119 62.9158 76.3912 63.3308 76.5951C64.1733 77.0091 64.1273 76.9064 64.4216 79.0297C64.5557 79.9973 64.7113 80.6137 64.857 80.7544C65.1956 81.0819 70.8021 81.0819 71.1408 80.7544C71.2865 80.6137 71.442 79.9973 71.5761 79.0297C71.8704 76.9064 71.8244 77.0091 72.667 76.5951C73.082 76.3912 73.5904 76.119 73.7967 75.9901C74.1625 75.7616 74.2134 75.7719 75.8367 76.4072C76.7524 76.7655 77.6422 77.0393 77.814 77.0156C78.2412 76.9564 81.12 72.1849 80.9937 71.7454C80.9475 71.5845 80.2683 70.9704 79.4846 70.3805L78.0594 69.3081V68.0035V66.6989L79.4846 65.6265C80.2683 65.0366 80.9485 64.4188 80.9958 64.2535C81.1241 63.806 78.2498 59.0516 77.8148 58.9914C77.6425 58.9677 76.752 59.2416 75.8358 59.6001C74.3504 60.1814 74.1372 60.2316 73.8671 60.0644C73.7006 59.961 73.2111 59.6928 72.7794 59.468C72.3477 59.2433 71.9709 59.0414 71.942 59.0193C71.9131 58.9972 71.7699 58.188 71.6238 57.221C71.4553 56.1049 71.2773 55.3845 71.1365 55.248C70.9535 55.0709 70.4352 55.0281 68.1725 55.0034C66.6642 54.987 65.2848 55.0318 65.107 55.1031ZM70.0277 63.9794C70.9687 64.444 71.6735 65.1232 72.1681 66.0418C72.5057 66.6691 72.5555 66.9213 72.5555 68.0035C72.5555 69.0857 72.5057 69.3379 72.1681 69.9652C71.6759 70.8793 70.9731 71.5589 70.0277 72.0347C69.3789 72.3612 69.1181 72.4094 67.9989 72.4094C66.8796 72.4094 66.6188 72.3612 65.9701 72.0347C65.0269 71.56 64.324 70.8815 63.8261 69.9652C63.4839 69.3353 63.4349 69.0901 63.4349 68.0035C63.4349 66.9169 63.4839 66.6717 63.8261 66.0418C64.3027 65.1647 65.0226 64.4482 65.8265 64.0512C66.7725 63.5838 67.0702 63.5238 68.2129 63.5692C69.0303 63.6019 69.459 63.6988 70.0277 63.9794Z" fill="white"/>
<defs>
<filter id="filter0_f_18_1393" x="0" y="0" width="136" height="136" filterUnits="userSpaceOnUse" color-interpolation-filters="sRGB">
<feFlood flood-opacity="0" result="BackgroundImageFix"/>
<feBlend mode="normal" in="SourceGraphic" in2="BackgroundImageFix" result="shape"/>
<feGaussianBlur stdDeviation="25" result="effect1_foregroundBlur_18_1393"/>
</filter>
</defs>
</svg>
