<svg width="36" height="111" viewBox="0 0 36 111" fill="none" xmlns="http://www.w3.org/2000/svg">
<rect width="6" height="75" transform="matrix(1 0 0 -1 15 75)" fill="url(#paint0_linear_29_9)"/>
<rect y="75" width="36" height="36" fill="#B33EF8"/>
<path d="M17.7 103.36C16.12 103.36 14.78 103.11 13.68 102.61C12.58 102.09 11.74 101.37 11.16 100.45C10.6 99.51 10.32 98.42 10.32 97.18V96.73H14.04V97.27C14.04 98.27 14.35 99.04 14.97 99.58C15.59 100.1 16.46 100.36 17.58 100.36C18.64 100.36 19.49 100.11 20.13 99.61C20.77 99.11 21.09 98.31 21.09 97.21C21.09 96.35 20.91 95.7 20.55 95.26C20.21 94.8 19.75 94.48 19.17 94.3C18.61 94.12 18 94.03 17.34 94.03H15.63V91.03H17.43C18.03 91.03 18.57 90.92 19.05 90.7C19.55 90.48 19.94 90.14 20.22 89.68C20.52 89.22 20.67 88.64 20.67 87.94C20.67 87.26 20.54 86.71 20.28 86.29C20.02 85.87 19.66 85.56 19.2 85.36C18.74 85.16 18.22 85.06 17.64 85.06C17.02 85.06 16.47 85.17 15.99 85.39C15.51 85.59 15.14 85.91 14.88 86.35C14.62 86.77 14.49 87.31 14.49 87.97V88.45H10.77V87.7C10.77 86.56 11.06 85.57 11.64 84.73C12.22 83.87 13.02 83.21 14.04 82.75C15.08 82.29 16.26 82.06 17.58 82.06C18.94 82.06 20.13 82.28 21.15 82.72C22.19 83.14 23 83.77 23.58 84.61C24.16 85.45 24.45 86.48 24.45 87.7C24.45 88.5 24.3 89.2 24 89.8C23.72 90.38 23.33 90.87 22.83 91.27C22.33 91.67 21.77 92.02 21.15 92.32V92.44C22.21 92.76 23.09 93.34 23.79 94.18C24.51 95.02 24.87 96.12 24.87 97.48C24.87 98.7 24.56 99.75 23.94 100.63C23.34 101.51 22.5 102.19 21.42 102.67C20.34 103.13 19.1 103.36 17.7 103.36Z" fill="white"/>
<defs>
<linearGradient id="paint0_linear_29_9" x1="3" y1="0" x2="3" y2="75" gradientUnits="userSpaceOnUse">
<stop stop-color="#B33EF8"/>
<stop offset="1" stop-color="#B33EF8" stop-opacity="0"/>
</linearGradient>
</defs>
</svg>
