<svg width="210" height="46" viewBox="0 0 210 46" fill="none" xmlns="http://www.w3.org/2000/svg">
<path fill-rule="evenodd" clip-rule="evenodd" d="M15.1528 1.26508C11.182 2.79754 8.67566 4.50509 5.88775 7.57766C-0.524844 14.6457 -1.82097 25.0513 2.59926 33.972C4.0101 36.8194 8.17161 41.1733 11.1651 42.9339C17.9958 46.9509 26.7112 46.9509 33.5419 42.9339C36.5354 41.1733 40.6969 36.8194 42.1077 33.972C45.5249 27.0759 45.5249 18.992 42.1077 12.0959C40.7749 9.40568 36.6427 4.98545 33.9382 3.356C28.121 -0.14844 20.8995 -0.951931 15.1528 1.26508ZM71.0148 1.018C67.0733 2.31462 64.0589 4.28303 61.1156 7.4822C54.6434 14.5171 53.2897 25.0452 57.7124 33.9567C59.1337 36.8194 63.2897 41.1707 66.2877 42.9339C72.8026 46.7656 81.2433 46.9463 88.0075 43.399C90.7005 41.987 95.1228 37.6592 96.7005 34.8913C100.607 28.0402 100.809 19.3187 97.2303 12.0959C95.8195 9.24846 91.6535 4.88999 88.6918 3.16253C83.3404 0.0404376 76.5047 -0.788582 71.0148 1.018ZM125.398 1.26508C121.427 2.79754 118.921 4.50509 116.133 7.57766C109.72 14.6457 108.424 25.0513 112.844 33.972C113.391 35.0741 114.967 37.2038 116.347 38.7046C125.297 48.4318 139.9 48.4318 148.85 38.7046C150.23 37.2038 151.807 35.0741 152.353 33.972C155.77 27.0759 155.77 18.992 152.353 12.0959C151.02 9.40568 146.888 4.98545 144.183 3.356C138.366 -0.14844 131.145 -0.951931 125.398 1.26508ZM180.521 1.26508C176.433 2.84246 173.932 4.57502 171.101 7.79308C167.565 11.8105 165.797 16.1435 165.493 21.5306C165.102 28.4787 166.952 33.7933 171.47 38.7046C180.42 48.4318 195.023 48.4318 203.972 38.7046C208.491 33.7933 210.34 28.4787 209.949 21.5306C209.64 16.0424 207.859 11.7626 204.158 7.6088C198.101 0.812796 188.424 -1.78401 180.521 1.26508ZM27.8161 14.3252C27.8161 16.2803 27.7645 16.3405 25.9539 16.4947C24.3369 16.632 24.0708 16.8377 23.9347 18.0568C23.7857 19.3845 23.8865 19.4606 25.7969 19.4606C27.8121 19.4606 27.8161 19.4642 27.8161 21.4479C27.8161 23.55 27.2793 24.0549 25.0441 24.0549C23.8582 24.0549 23.8433 24.1156 23.8433 28.9044V33.754H21.8569H19.8705V28.9044V24.0549H18.3807C16.9406 24.0549 16.8909 23.9763 16.8909 21.698C16.8909 19.4407 16.9445 19.3524 18.1716 19.5933C18.8882 19.7342 19.5333 19.5918 19.6366 19.2697C19.7384 18.9537 20.0672 17.7081 20.3676 16.5018C21.0191 13.8872 23.1123 12.3185 25.9539 12.3159C27.7908 12.3139 27.8161 12.3409 27.8161 14.3252ZM139.939 13.6054C142.227 14.9944 142.779 16.8765 142.779 23.2892C142.779 32.2302 141.341 33.754 132.906 33.754C124.342 33.754 122.63 32.2338 122.272 24.3101C121.943 17.0399 123.332 13.8101 127.228 12.7876C130.141 12.0224 138.185 12.54 139.939 13.6054ZM83.6955 15.0674C84.3426 15.5539 85.0006 15.6386 85.7767 15.3349C87.0073 14.854 87.267 15.3175 86.3156 16.2956C85.8522 16.7719 85.9282 16.9082 86.6577 16.9082C87.5283 16.9082 87.5173 16.9827 86.5087 17.9491C85.8582 18.5718 85.4217 19.6035 85.4217 20.5178C85.4217 24.0513 82.534 28.2699 78.7176 30.3123C76.4158 31.5441 71.6688 31.731 69.2822 30.6835L67.7924 30.0295L69.8592 29.5737C71.9469 29.1127 73.8931 27.6282 72.4093 27.6282C72.0135 27.6282 71.1653 27.054 70.5237 26.352C69.5047 25.2372 69.4689 25.0759 70.2411 25.0759C70.9379 25.0759 70.7978 24.7614 69.5831 23.595C67.9006 21.9793 67.4651 20.2865 68.875 20.8425C69.6561 21.1508 69.6561 21.0941 68.875 19.9476C67.9895 18.6479 67.7517 16.1312 68.4707 15.6744C68.7076 15.5238 69.3219 15.8791 69.8364 16.4641C70.9761 17.7592 73.684 19.211 75.8621 19.6939C77.413 20.0379 77.4761 19.99 77.4761 18.457C77.4761 15.2895 81.2527 13.2312 83.6955 15.0674ZM125.872 16.1195C124.725 17.2992 124.653 17.7035 124.653 23.0339C124.653 28.3644 124.725 28.7687 125.872 29.9484C127.02 31.1281 127.413 31.2016 132.599 31.2016C137.784 31.2016 138.177 31.1281 139.325 29.9484C140.473 28.7687 140.544 28.3644 140.544 23.0339C140.544 17.7035 140.473 17.2992 139.325 16.1195C138.177 14.9398 137.784 14.8663 132.599 14.8663C127.413 14.8663 127.02 14.9398 125.872 16.1195ZM196.023 15.6943C196.628 15.8607 197.274 16.4845 197.458 17.0802C198.051 18.9991 197.844 29.1678 197.199 29.8284C196.38 30.6671 178.947 30.5543 178.121 29.7054C177.465 29.031 177.307 19.554 177.914 17.3283C178.119 16.5769 178.678 15.8571 179.155 15.7285C180.468 15.3757 194.762 15.3466 196.023 15.6943ZM138.612 18.0772C138.346 18.3513 137.753 18.4269 137.294 18.2462C136.613 17.9776 136.573 17.776 137.078 17.1512C137.558 16.5565 137.853 16.5187 138.396 16.9822C138.851 17.3702 138.927 17.7541 138.612 18.0772ZM136.278 19.4121C138.769 22.0844 138.003 26.303 134.738 27.8957C129.555 30.4241 125.01 23.6409 129.001 19.333C130.054 18.1966 130.739 17.9291 132.599 17.9291C134.486 17.9291 135.142 18.1936 136.278 19.4121ZM130.441 20.9047C129.355 22.1375 129.397 24.1999 130.527 25.252C132.496 27.0836 135.578 25.6757 135.578 22.9451C135.578 20.331 132.146 18.9675 130.441 20.9047ZM185.238 23.0339C185.238 24.7185 185.406 26.1004 185.611 26.105C186.218 26.1177 191.197 23.3571 191.197 23.0074C191.197 22.5954 186.525 19.9711 185.792 19.9711C185.446 19.9711 185.238 21.1222 185.238 23.0339Z" fill="url(#paint0_linear_7_87)"/>
<defs>
<linearGradient id="paint0_linear_7_87" x1="0" y1="23" x2="210" y2="23" gradientUnits="userSpaceOnUse">
<stop stop-color="#A941FA"/>
<stop offset="1" stop-color="#4C40DC"/>
</linearGradient>
</defs>
</svg>
