<svg width="54" height="48" viewBox="0 0 54 48" fill="none" xmlns="http://www.w3.org/2000/svg">
<g clip-path="url(#clip0_1_40)">
<path fill-rule="evenodd" clip-rule="evenodd" d="M0.00405076 0.215398C-0.173814 0.392872 5.56164 10.6762 6.18748 11.302C6.2856 11.4002 6.66518 11.0511 7.03107 10.5269C7.39658 10.0023 8.22844 8.99331 8.87891 8.28459L10.0614 6.99615L13.8372 7.11186L17.6126 7.22757L13.9428 13.4822C11.9241 16.9222 10.269 19.8458 10.2647 19.9787C10.251 20.4052 13.8486 26.5777 14.1101 26.5753C14.2481 26.5742 16.9121 22.1788 20.0297 16.8076L25.6979 7.04228L38.0409 7.03719L50.3839 7.03211L52.3694 3.73673C53.4612 1.92446 54.2543 0.341273 54.1316 0.218526C53.8423 -0.070748 0.293325 -0.0738766 0.00405076 0.215398ZM26.5141 12.4865C25.5274 14.1967 24.7206 15.692 24.7206 15.8092C24.7206 15.9269 27.7259 16.0231 31.3985 16.0231C35.0715 16.0231 38.0182 16.1568 37.9463 16.3202C37.8748 16.4836 37.3075 17.5332 36.6864 18.6523L35.5567 20.687L31.888 20.7981L28.2193 20.9095L27.2822 22.4829L26.3452 24.0559L28.0695 26.7829C29.0179 28.2824 29.7958 29.6221 29.7981 29.7593C29.8005 29.8969 29.1097 31.1943 28.2634 32.6431L26.724 35.277L25.9207 33.9569C25.479 33.231 24.017 30.6651 22.6714 28.2547C21.3259 25.8447 20.1024 23.8655 19.9523 23.8569C19.8025 23.8483 18.8718 25.3232 17.8843 27.1347L16.0893 30.4282L21.1973 39.1553C24.0068 43.9553 26.459 47.9351 26.6458 47.9992C26.8331 48.0637 29.3212 44.0315 32.1757 39.0384L37.3646 29.9606L36.5038 28.4646L35.6427 26.9686H37.3771H39.1112L44.0344 18.4014C46.7418 13.6893 48.9571 9.73135 48.9571 9.60587C48.9571 9.48039 44.3107 9.37758 38.6324 9.37758H28.3072L26.5141 12.4865Z" fill="url(#paint0_linear_1_40)"/>
</g>
<defs>
<linearGradient id="paint0_linear_1_40" x1="0" y1="24" x2="54.1441" y2="24" gradientUnits="userSpaceOnUse">
<stop stop-color="#A941FA"/>
<stop offset="1" stop-color="#4C40DC"/>
</linearGradient>
<clipPath id="clip0_1_40">
<rect width="54" height="48" fill="white"/>
</clipPath>
</defs>
</svg>
